<?xml version="1.0" standalone="no"?>
<!DOCTYPE svg PUBLIC "-//W3C//DTD SVG 20010904//EN"
 "http://www.w3.org/TR/2001/REC-SVG-20010904/DTD/svg10.dtd">
<svg version="1.0" xmlns="http://www.w3.org/2000/svg"
 width="700.000000pt" height="700.000000pt" viewBox="0 0 700.000000 700.000000"
 preserveAspectRatio="xMidYMid meet">
<metadata>
Created by potrace 1.11, written by Peter Selinger 2001-2013
</metadata>
<g transform="translate(0.000000,700.000000) scale(0.100000,-0.100000)"
fill="#000000" stroke="none">
<path d="M3139 6486 c-2 -2 -35 -6 -74 -9 -38 -4 -104 -13 -145 -21 -125 -25
-210 -45 -219 -50 -4 -3 -21 -7 -37 -10 -33 -6 -251 -77 -322 -105 -300 -119
-621 -316 -877 -540 -49 -43 -246 -241 -296 -296 -146 -165 -322 -435 -429
-662 -134 -281 -181 -423 -256 -768 -2 -11 -7 -36 -10 -55 -3 -19 -8 -46 -11
-60 -4 -14 -8 -189 -9 -390 -3 -374 1 -419 41 -615 32 -156 105 -392 167 -540
16 -38 34 -83 40 -100 14 -36 128 -262 163 -323 171 -293 471 -623 770 -849
89 -67 213 -153 219 -153 3 0 31 -17 63 -38 87 -58 326 -176 448 -222 11 -4
31 -12 45 -18 129 -56 466 -140 638 -158 30 -3 64 -7 75 -10 34 -6 260 -18
342 -17 193 1 489 32 604 63 20 5 47 11 61 13 67 12 307 86 409 127 256 101
555 271 761 434 197 155 319 275 501 493 41 49 130 174 182 254 91 141 155
264 258 494 34 77 108 294 134 395 36 140 63 314 71 455 16 260 6 594 -20 740
-3 17 -8 48 -12 70 -3 22 -12 65 -19 95 -8 30 -16 66 -19 80 -21 104 -95 333
-151 470 -27 66 -115 244 -153 312 -213 378 -590 783 -942 1014 -196 128 -392
230 -585 304 -60 23 -119 46 -130 50 -41 18 -265 81 -340 96 -11 2 -31 6 -45
9 -39 8 -149 25 -205 31 -57 6 -680 15 -686 10z m442 -17 c142 -3 399 -39 559
-78 25 -7 53 -13 63 -16 216 -51 596 -216 824 -358 283 -177 553 -417 763
-682 194 -244 384 -597 483 -895 23 -71 64 -211 72 -248 2 -9 10 -46 19 -82 8
-36 17 -78 20 -95 2 -16 8 -50 12 -75 24 -148 29 -231 29 -455 0 -266 -12
-393 -59 -620 -31 -149 -122 -445 -152 -492 -8 -12 -14 -27 -14 -33 0 -19
-130 -279 -186 -372 -137 -226 -268 -393 -458 -584 -158 -158 -297 -272 -466
-382 -63 -42 -127 -84 -142 -94 -38 -25 -268 -138 -358 -175 -188 -78 -491
-166 -645 -188 -23 -3 -52 -8 -65 -10 -48 -10 -188 -15 -440 -15 -313 -1 -384
4 -536 36 -65 13 -130 27 -144 30 -50 10 -248 73 -345 109 -124 46 -375 166
-481 230 -88 54 -256 165 -264 175 -3 3 -32 26 -64 51 -93 69 -140 112 -291
264 -228 230 -363 422 -532 755 -112 222 -191 431 -228 605 -2 11 -7 31 -10
45 -9 41 -43 241 -49 290 -26 217 -27 627 -1 758 2 10 6 43 10 73 53 428 265
937 546 1317 163 219 405 463 600 605 13 9 56 40 94 68 130 95 338 210 555
307 151 68 517 172 695 197 22 3 54 7 70 10 17 3 46 7 65 10 19 3 103 8 185
11 83 4 152 8 154 10 2 2 7 2 10 -1 4 -2 50 -5 102 -6z"/>
<path d="M3169 6326 c-2 -2 -31 -7 -64 -11 -82 -9 -210 -32 -286 -50 -35 -9
-73 -18 -83 -20 -172 -39 -521 -184 -703 -291 -125 -74 -304 -200 -418 -294
-75 -63 -311 -305 -379 -390 -70 -87 -215 -300 -259 -380 -209 -381 -323 -741
-353 -1115 -12 -143 -5 -573 10 -651 2 -11 7 -47 10 -80 13 -122 54 -298 103
-444 181 -543 525 -1025 973 -1366 122 -93 226 -164 239 -164 5 0 11 -3 13 -7
8 -20 303 -169 436 -222 162 -64 353 -121 497 -147 17 -3 48 -9 70 -14 143
-32 724 -35 897 -5 13 2 46 7 73 10 131 15 474 117 624 186 36 17 91 42 121
56 159 74 346 191 520 327 95 74 322 289 396 376 181 213 355 493 463 750 18
41 36 84 41 95 19 42 80 236 104 331 62 249 71 332 71 679 0 275 -6 381 -25
480 -5 28 -11 61 -14 75 -2 14 -9 45 -16 70 -7 25 -13 52 -15 60 -25 129 -120
387 -209 566 -290 587 -745 1038 -1331 1318 -60 29 -137 63 -170 75 -33 13
-69 27 -80 31 -51 22 -222 73 -335 99 -112 26 -203 41 -355 57 -63 6 -560 15
-566 10z m491 -1857 c127 -40 257 -153 326 -283 66 -124 66 -125 71 -621 l5
-451 -223 3 c-300 3 -480 10 -504 20 -12 4 -21 18 -22 31 0 12 -1 60 -2 107
l-1 85 -159 0 -158 0 -3 88 c-2 79 -5 129 -9 158 0 5 -11 10 -23 11 -71 2
-108 8 -108 17 0 6 5 38 10 71 6 33 13 76 16 95 47 316 77 405 168 507 44 49
160 133 184 133 7 0 12 4 12 8 0 13 89 34 170 41 81 6 193 -3 250 -20z m660
-1703 c0 -32 21 -54 54 -58 24 -3 29 -8 32 -36 3 -20 0 -31 -6 -27 -6 3 -10
13 -10 21 0 18 -41 35 -54 23 -9 -8 -13 -33 -15 -89 -1 -18 -4 -21 -13 -12
-12 12 -21 154 -11 191 7 26 23 17 23 -13z m-88 -87 c1 -30 0 -65 -1 -79 -2
-24 -2 -24 -13 -5 -13 21 -20 119 -11 142 11 28 24 -4 25 -58z m-932 33 c0 -4
-7 -15 -14 -24 -8 -11 -12 -36 -9 -65 6 -69 -14 -33 -22 40 -7 67 -2 81 26 67
10 -6 19 -14 19 -18z m600 -14 c21 -35 27 -103 10 -113 -5 -3 -10 -4 -10 -2 0
9 -21 113 -26 130 -9 27 5 20 26 -15z m-1000 14 c0 -5 -9 -17 -19 -26 -11 -10
-23 -31 -26 -47 -4 -16 -10 -27 -14 -25 -11 7 -4 76 10 92 12 15 49 19 49 6z
m-188 -52 c-4 -42 -1 -53 14 -65 17 -13 17 -14 2 -15 -52 -1 -68 123 -17 129
3 1 4 -22 1 -49z m259 8 c7 -18 19 -39 26 -46 10 -10 10 -18 2 -34 -11 -20
-12 -20 -30 17 -23 46 -36 111 -22 102 6 -4 16 -21 24 -39z m141 -35 c2 -97
-2 -125 -14 -121 -14 5 -22 146 -11 182 5 17 6 18 15 3 5 -9 9 -38 10 -64z
m258 0 c0 -62 -14 -69 -30 -15 -9 27 -9 45 0 67 16 41 30 16 30 -52z m282 32
c-3 -27 1 -52 8 -60 18 -22 6 -29 -13 -7 -21 22 -29 70 -16 93 16 32 24 21 21
-26z m93 28 c16 -42 15 -71 -4 -94 l-20 -24 6 52 c4 36 2 58 -7 68 -10 12 -10
15 3 15 8 0 18 -8 22 -17z m95 10 c0 -5 -9 -33 -20 -63 l-19 -55 0 56 c-1 31
2 59 6 62 9 9 33 9 33 0z m241 0 c0 -5 2 -26 4 -49 1 -22 8 -50 14 -62 12 -22
5 -28 -15 -14 -28 18 -42 78 -28 116 6 16 23 22 25 9z m93 -36 c-10 -28 -24
-19 -24 15 0 29 2 31 15 17 9 -9 13 -23 9 -32z m-961 12 c10 -37 -11 -104 -28
-88 -5 6 -9 51 -6 87 1 28 27 29 34 1z m267 -39 c0 -9 -9 -25 -20 -35 -22 -20
-22 -20 -22 40 0 60 1 62 22 36 11 -13 20 -31 20 -41z m80 14 c17 -20 29 -39
25 -42 -7 -8 -54 28 -73 56 -25 38 11 27 48 -14z m847 -46 c-3 -8 -6 -5 -6 6
-1 11 2 17 5 13 3 -3 4 -12 1 -19z m-403 -23 c-3 -8 -12 -11 -20 -8 -15 5 -18
16 -8 26 11 10 33 -4 28 -18z"/>
<path d="M3335 4431 c-62 -15 -162 -78 -225 -141 -92 -91 -142 -196 -155 -323
-2 -26 -7 -64 -11 -85 -7 -39 -8 -45 -25 -136 -5 -32 -8 -60 -6 -62 2 -2 30
-8 63 -12 67 -8 59 9 68 -157 2 -49 5 -93 5 -97 1 -4 71 -6 156 -5 l155 2 0
-122 0 -123 326 0 325 0 -6 338 c-9 552 -14 595 -82 698 -23 34 -31 57 -27 69
5 12 4 16 -4 11 -6 -4 -44 15 -84 42 -83 55 -128 80 -172 94 -40 12 -262 19
-301 9z m260 -51 c30 -28 31 -40 5 -82 -24 -40 -35 -105 -22 -139 8 -21 20
-27 66 -35 45 -9 56 -8 61 4 10 27 5 51 -14 57 -37 11 -34 104 4 119 75 29
122 -32 88 -114 -8 -19 -20 -51 -25 -70 -13 -46 -26 -60 -53 -60 -33 0 -48
-22 -31 -46 20 -26 130 -27 170 -1 43 29 63 29 86 0 33 -42 22 -102 -20 -115
-8 -3 -32 3 -53 14 -42 21 -104 30 -153 21 -25 -4 -35 -13 -47 -43 -8 -21 -12
-42 -8 -48 3 -5 30 -10 59 -10 65 -1 72 -5 72 -45 0 -18 7 -45 16 -62 21 -41
21 -81 -1 -105 -24 -26 -57 -25 -82 3 -33 37 -34 43 -7 90 25 45 25 46 5 56
-11 6 -37 11 -58 11 -48 0 -61 9 -65 42 -5 33 -12 41 -40 45 -28 4 -48 -14
-48 -44 0 -31 -17 -63 -33 -63 -33 0 -36 -22 -11 -88 13 -36 22 -72 20 -78
-17 -45 -124 -46 -128 -1 -2 41 3 70 18 91 8 11 14 35 14 52 0 46 9 63 41 80
36 18 36 28 1 64 -33 33 -109 49 -147 32 -26 -12 -26 -32 0 -95 19 -46 19 -50
-2 -74 -28 -31 -69 -37 -93 -13 -25 25 -25 59 0 114 11 24 21 58 22 75 1 18 7
36 14 42 6 5 48 11 93 13 46 2 85 7 88 9 15 15 -15 27 -68 27 -51 0 -62 4 -81
25 -27 31 -41 31 -93 1 -65 -38 -95 -21 -100 57 -1 15 4 32 12 39 19 15 65 13
102 -6 17 -9 34 -16 38 -15 31 5 66 -4 85 -23 32 -32 64 -33 93 -4 27 27 32
51 13 58 -7 2 -33 6 -58 7 -49 3 -70 15 -70 39 0 8 -11 30 -25 48 -14 18 -25
42 -25 53 0 30 35 61 69 61 46 0 60 -9 67 -47 5 -27 2 -39 -16 -58 -22 -23
-22 -23 -2 -34 12 -6 42 -11 69 -11 57 0 68 -6 77 -42 7 -31 25 -38 27 -10 6
69 4 96 -8 119 -26 50 -22 115 9 134 19 12 58 2 83 -21z"/>
<path d="M3537 4341 c-3 -12 -1 -24 4 -27 13 -8 24 25 12 37 -7 7 -12 3 -16
-10z"/>
<path d="M3283 4302 c-8 -5 -9 -13 -3 -22 7 -12 12 -12 22 -2 14 14 -1 35 -19
24z"/>
<path d="M3714 4259 c-8 -14 11 -33 25 -25 11 7 4 36 -9 36 -5 0 -12 -5 -16
-11z"/>
<path d="M3096 4093 c-12 -12 -5 -23 14 -23 11 0 20 4 20 9 0 11 -26 22 -34
14z"/>
<path d="M3478 4072 c-10 -2 -18 -9 -19 -15 -11 -119 -6 -127 80 -127 58 0 71
3 75 18 5 16 9 92 7 118 -1 11 -102 15 -143 6z"/>
<path d="M3881 3976 c-9 -10 -8 -16 4 -26 13 -11 15 -8 15 14 0 30 -3 32 -19
12z"/>
<path d="M3207 3785 c-3 -7 -3 -15 0 -18 7 -7 33 3 33 13 0 14 -28 19 -33 5z"/>
<path d="M3747 3676 c-6 -15 1 -26 15 -26 4 0 8 9 8 20 0 23 -15 27 -23 6z"/>
<path d="M3397 3626 c-7 -19 11 -32 24 -19 6 6 5 14 -4 22 -12 9 -16 8 -20 -3z"/>
</g>
</svg>
